<svg xmlns="http://www.w3.org/2000/svg" viewBox="0 0 470.75 458.51"><defs><style>.cls-1,.cls-2,.cls-3,.cls-4,.cls-5,.cls-6{fill:none;stroke-linecap:round;stroke-linejoin:round;stroke-width:3px}.cls-1{stroke:#5a9dd4}.cls-2{stroke:#8360a8}.cls-3{stroke:#d95388}.cls-4{stroke:#8ac549}.cls-5{stroke:#000}.cls-6{stroke:#ffd62b}</style></defs><g id="Layer_2" data-name="Layer 2"><g id="Layer_2-2" data-name="Layer 2"><path class="cls-1" d="M152.48 436a7.33 7.33 0 0 0 0-14.65h-14.65a7.33 7.33 0 1 0 0 14.65z"/><path class="cls-2" d="M277.67 200.59l27.21-24.83h12"/><circle class="cls-2" cx="324.97" cy="175.76" r="8.09"/><circle class="cls-3" cx="150.91" cy="305.68" r="8.09"/><path class="cls-3" d="M150.91 297.59v-61.24l17.5-10.63"/><path id="flame" class="cls-4" d="M31.6 126.43h-.66c-23.73 0-8.62 33.39-3 39.82-4.24-10.09-9.26-29.37 3.23-29.37h.22c12.49 0 7.47 19.28 3.23 29.37 5.6-6.43 20.7-39.82-3.02-39.82z"/><path class="cls-4" d="M53.38 80.11a105.7 105.7 0 0 0 1.46-18.66c0-18.57-11.09-42.66-21.37-55l-2.21-5-2.21 5C18.79 18.79 7.7 42.88 7.7 61.45a105.7 105.7 0 0 0 1.46 18.66A29.67 29.67 0 0 0 1.5 100c0 5.13 1.3 12.43 3.58 20.06.15-7.18 5.95-15.5 13.09-15.5s13.1 8.54 13.1 15.77c0-7.23 5.86-15.77 13.1-15.77s12.94 8.32 13.09 15.5C59.74 112.47 61 105.17 61 100a29.67 29.67 0 0 0-7.62-19.89zM32.15 94.85V21.19c8.75 12.27 13.12 28.72 13.12 39.66 0 14.33-3.16 23.6-13.12 34z"/><path class="cls-5" d="M282.07 314.78H168.41V209.83a9.24 9.24 0 0 1 9.24-9.24h134.6a9.24 9.24 0 0 1 9.24 9.24v53.23m-153.08-47.99h153.08"/><path class="cls-5" d="M183.3 226.54h92.68v16.55H183.3z"/><circle class="cls-4" cx="298.05" cy="232.75" r="7.03"/><path class="cls-4" d="M308 243.28l-5.27-5.27"/><path class="cls-1" d="M183.3 257.68h6.62m8.28 0h77.78"/><path class="cls-5" d="M183.3 272.72h6.62m8.28 0h77.78m-92.68 15.03h6.62m8.28 0h77.78m-92.68 15.03h6.62m8.28 0h77.78"/><path class="cls-1" d="M339.61 257.14h6.62m8.27 0h41.38m-56.27-11.58h6.62m8.27 0h57.98m-72.87-11.59h6.62m8.27 0h48.93m-63.82-10.45h6.62m8.27 0h57.98"/><path class="cls-5" d="M137.83 429.33a7.33 7.33 0 0 0 0-14.65h-14.65a7.33 7.33 0 1 0 0 14.65z"/><path class="cls-2" d="M469.25 210.37c0 11.42-20.69 38.06-20.69 38.06s-20.68-26.64-20.68-38.06a20.69 20.69 0 1 1 41.37 0z"/><circle class="cls-2" cx="448.56" cy="210.37" r="9.1"/><circle class="cls-1" cx="92.16" cy="266.06" r="39.3"/><path class="cls-1" d="M59.86 288.45a77.1 77.1 0 0 1 64.7.05m0-44.69a77.18 77.18 0 0 1-64.6-.29m44.29-14.87a77.07 77.07 0 0 1-1.68 75.35m-20.13-.27a77.09 77.09 0 0 1-1.38-75.39m-28.21 37.69h78.61m-39.3-39.28v78.61"/><path class="cls-5" d="M354.18 161.9h60.96v44.96h-60.96z"/><path class="cls-5" d="M401.9 206.86L373.77 179l-19.59 19.73m60.96-5.8l-14.84-14.84-13.57 13.67"/><circle class="cls-6" cx="387.08" cy="173.42" r="5.72"/><path class="cls-5" d="M104.62 407.59l2.33 8.7a4.12 4.12 0 0 1-5.11 5l-8.66-2.49a4.11 4.11 0 0 0-4.69 1.89L84 428.51a4.12 4.12 0 0 1-7.16-.07l-4.36-7.88a4.11 4.11 0 0 0-4.66-2l-8.7 2.32a4.11 4.11 0 0 1-5-5.11l2.49-8.65a4.12 4.12 0 0 0-1.9-4.7l-7.79-4.51a4.1 4.1 0 0 1 .07-7.15l7.88-4.36a4.13 4.13 0 0 0 2-4.66l-2.33-8.7a4.12 4.12 0 0 1 5.11-5l8.66 2.49a4.11 4.11 0 0 0 4.69-1.89l4.51-7.8a4.12 4.12 0 0 1 7.16.07l4.33 7.88a4.11 4.11 0 0 0 4.66 2l8.7-2.32a4.11 4.11 0 0 1 5 5.11l-2.49 8.65a4.12 4.12 0 0 0 1.9 4.7l7.79 4.51a4.11 4.11 0 0 1-.06 7.15l-7.88 4.37a4.1 4.1 0 0 0-2 4.63z"/><circle class="cls-2" cx="80.72" cy="394.68" r="15.11"/><path class="cls-5" d="M153.94 368.76l1.86 6.95a3.28 3.28 0 0 1-4.08 4l-6.92-2a3.27 3.27 0 0 0-3.75 1.51l-3.6 6.23a3.28 3.28 0 0 1-5.71-.06l-3.49-6.29a3.3 3.3 0 0 0-3.72-1.59l-7 1.86a3.28 3.28 0 0 1-4-4.08l2-6.91a3.27 3.27 0 0 0-1.51-3.75l-6.2-3.63a3.28 3.28 0 0 1 .06-5.71l6.29-3.49a3.28 3.28 0 0 0 1.58-3.72l-1.85-6.95a3.28 3.28 0 0 1 4.08-4l6.91 2a3.29 3.29 0 0 0 3.75-1.52l3.61-6.22a3.28 3.28 0 0 1 5.71.05l3.49 6.29a3.28 3.28 0 0 0 3.72 1.59l7-1.86a3.28 3.28 0 0 1 4 4.08l-2 6.92a3.3 3.3 0 0 0 1.52 3.75l6.22 3.6a3.28 3.28 0 0 1-.05 5.71l-6.3 3.49a3.29 3.29 0 0 0-1.62 3.75z"/><circle class="cls-1" cx="134.85" cy="358.44" r="10.44"/><path class="cls-5" d="M78.76 108.2h58.27v101.4H78.76z"/><path class="cls-5" d="M78.76 108.2h58.27v101.4H78.76z"/><path class="cls-2" transform="rotate(90 107.89 154.15)" d="M70.22 133.29h75.34V175H70.22z"/><path class="cls-5" d="M101 199.95h13.79"/><circle class="cls-5" cx="320.96" cy="313.42" r="38.89"/><circle class="cls-6" cx="320.96" cy="313.42" r="27.5"/><path class="cls-5" d="M352.21 337.17l7.51 7.51-7.51 7.5-7.51-7.5"/><path class="cls-5" transform="rotate(-45 373.465 365.936)" d="M362.16 341.18h22.62v49.51h-22.62z"/><path class="cls-5" d="M160.18 151.64v-11.31m12.78 11.31v-20.01m12.78 20.01v-14.62m12.79 14.62v-22.61m12.78 22.61V136.5m12.78 15.14v-26.12m12.78 26.12v-33.92m12.78 33.92v-26.12m12.78 26.12v-30.28m12.78 30.28v-20.01m12.78 20.01V122.4m12.78 29.24v-22.61m12.78 22.61v-15.08m12.78 15.08v-26.9m12.78 26.9v-37.69"/><path class="cls-4" d="M160.18 126.82l12.78-9.1 12.79 7.8 12.78-13.13 12.78 5.33 25.56-14.16 12.78 10.26 12.78-4.41 12.78 8.7 12.78-9.22 25.56 16.63 25.56-20.53"/><path class="cls-5" d="M219.05 325.97h55.14v39.74h-55.14z"/><path class="cls-5" d="M219.05 335.88h-43.68v42.36h7.27v9.04l8.84-9.04h49.64v-12.52"/><path class="cls-2" d="M185.59 362.21h15.08m8.49 0"/><path class="cls-4" d="M218.9 426.06"/><path class="cls-2" d="M185.59 349.54h23.57"/><path class="cls-3" d="M238.87 337.18v17.3l15.07-8.79-15.07-8.51z"/><path class="cls-4" d="M189.15 402.8h-12.58a10.94 10.94 0 1 0 0 21.87h12.58L229 440.33v-53.48zm29.75-11.91v25.67m10.1-10.89a7.93 7.93 0 1 1 0 15.85"/><path class="cls-4" d="M189.15 402.8v37.06h-8.79v-15.19m67.05-11.08h13.39m-16.69-12.56l4.94-4.94m-4.94 29.76l4.94 4.94M43.28 339.04l4.23 4.68 8.89-8.73"/><circle class="cls-4" cx="49.84" cy="339.36" r="15.3"/><path class="cls-5" d="M414.67 430.23h51.68v-67.51h-15.4m-24.09 0h-15.15v51.4"/><path class="cls-5" transform="rotate(-180 439.03 361.905)" d="M427.11 354.71h23.84v14.4h-23.84z"/><path class="cls-4" d="M422.59 379.85l3.08 3.41 6.49-6.37m5.04 3.84h20.25m-34.86 14.87l3.08 3.42 6.49-6.37m5.04 3.83h20.25m-34.86 14.88l3.08 3.41 6.49-6.37m5.04 3.84h20.25"/><path class="cls-5" d="M381.22 437.06l38.07-18.12L401.17 457 397 444.33l-9.94 9.94a2.19 2.19 0 1 1-3.09-3.1l9.94-9.93z"/><path class="cls-6" d="M135.78 92.91V77.2a20.69 20.69 0 1 1 19 0v15.71a4.41 4.41 0 0 1-4.41 4.41h-10.18a4.4 4.4 0 0 1-4.41-4.41zm0-5.44h19.03m-49.89-28.19h11.31m58.13 0h11.3m-68.92-28.54l8 7.99m41.1 41.11l8 7.99m-57.1 0l8-7.99m41.1-41.11l8-7.99m-28.55-.52V18.91"/><path class="cls-5" d="M382.59 318.42v-39.13h25.52m-25.52 46.88h77.72m-16.41-46.88h25.07v61.29h-86.38v-14.4m31.77-.04a11.33 11.33 0 0 1 22.66 0m2.68-9.73a9.73 9.73 0 0 1 9.73 9.73m-47.51 0a9.74 9.74 0 0 1 9.74-9.73m14.03-1.6v-10.72"/><path class="cls-4" d="M434.14 302.94v6.51m-17.2-21.82V267l8.6-11.13 8.6 11.13v20.63m-17.2 21.82v-6.51m2.76 0h-9.38v-6.04l6.57-9.27m14.45 15.31h9.37v-6.04l-6.57-9.27"/><path class="cls-1" d="M351.49 393.09a18.33 18.33 0 0 1-4.81 36H289.8a14.76 14.76 0 0 1-14.88-13.79 14.48 14.48 0 0 1 14.47-15.18l.41-.14a1.7 1.7 0 0 0 1.14-1.36 26.45 26.45 0 0 1 51.25-4.27"/><path class="cls-5" d="M272.16 178.69h-4.14"/><path class="cls-5" d="M158.68 168.77h79.72a3.51 3.51 0 0 1 3.51 3.51v12.07a3.51 3.51 0 0 1-3.51 3.51h-79.72v-19.09z" transform="rotate(180 200.295 178.315)"/><path class="cls-5" d="M179.81 187.86v-19.09m62.1.01l19.03 8.27v3.44l-19.03 7.37v-19.08z"/><path d="M31.38 176v81.8a64.37 64.37 0 0 0 27.33 52.66 64.37 64.37 0 0 0 37.05 11.73h38.31M13.94 190.57v76.88a64.37 64.37 0 0 0 17.47 44.09m19.85-128.98v52.26" stroke-dasharray="5 10" stroke="#ffd62b" fill="none" stroke-linecap="round" stroke-linejoin="round" stroke-width="3"/><path class="cls-5" d="M289.5 46.15h19.13V99a2.54 2.54 0 0 1-2.54 2.54H292a2.54 2.54 0 0 1-2.5-2.54V46.15z" transform="rotate(-45 299.057 73.867)"/><path class="cls-5" d="M321.72 63.35l15.84-15.84 13.52 13.52-32.42 32.43m6.22-33.27l13.52 13.53"/><path class="cls-5" d="M321.19 89a9.57 9.57 0 0 1-9.3 7.3 9.51 9.51 0 0 1-6.95-3m16.52-28.91V86.7a9.85 9.85 0 0 1-.27 2.26m-18.86-25.89V40.84h19.13v23.55m-19.13-5.62h19.13m-23.62.35l-13.53 13.52m25.08-1.97l-13.52 13.52"/><circle class="cls-2" cx="311.73" cy="86.46" r="3.26"/><circle class="cls-3" cx="371.4" cy="113.68" r="4.04"/><path class="cls-5" d="M445.24 147.66v14.24m-76.1-56.98v-50.9h76.1v76.25m-76.1 13.09V122.3"/><path class="cls-3" d="M381.66 113.68h45.75"/><circle class="cls-1" cx="390.56" cy="139.04" r="4.04"/><path class="cls-1" d="M400.82 138.97h45.75"/><path class="cls-5" d="M378.53 70h29.56m6.47 0h20.77m-56.8 25.37h13.8m7.44 0h35.56m-56.8-12.68h41.3m6.93 0h8.57m-66.21-22.27h76.09m-85.84 44.49h76.32v17.38h-76.32zm19.16 25.36h76.32v17.38h-76.32zM243.3 64.19l12.92 12.93-12.92 12.93m-27.34 0l-12.93-12.93 12.93-12.93"/><path class="cls-1" d="M234.2 64.19l-9.14 25.86"/></g></g></svg>